<?xml version="1.0" encoding="utf-8"?>
<!-- Generator: Adobe Illustrator 26.0.1, SVG Export Plug-In . SVG Version: 6.00 Build 0)  -->
<svg version="1.1" id="Layer_1" xmlns="http://www.w3.org/2000/svg" xmlns:xlink="http://www.w3.org/1999/xlink" x="0px" y="0px"
	 viewBox="0 0 891.22 255.51" style="enable-background:new 0 0 891.22 255.51;" xml:space="preserve">
<style type="text/css">
	.st0{fill:#2F3A4F;}
	.st1{fill:#FAE100;}
	.st2{fill:#FAE102;}
	.st3{fill:#313C50;}
	.st4{fill:#303B4F;}
	.st5{fill:#303B50;}
	.st6{fill:#323C51;}
	.st7{fill:#313C51;}
	.st8{fill:#FDFDFE;}
	.st9{fill:#FCFCFC;}
	.st10{fill:#FDFDFD;}
	.st11{fill:#FBFBFB;}
	.st12{fill:#F8F8F9;}
</style>
<g>
	<path class="st0" d="M47.68,86.01c13.77,0,27.54,0.04,41.3-0.04c2.23-0.01,2.05,1.3,2.05,2.73c-0.01,5.48,0,10.95,0,16.53
		c1.67-0.17,2.32-1.39,3.22-2.19c23.27-20.49,49.71-25.56,78.97-15.76c10.05,3.37,17.75,10.16,23.8,18.99
		c9.09-9.04,19.26-16.18,31.45-20.04c16.82-5.33,33.71-5.04,50.33,0.57c19.46,6.57,29.98,21.12,30.96,41.77
		c0.25,5.24,0.37,10.5,0.38,15.75c0.03,29.44-0.01,58.87,0.07,88.31c0.01,2.54-0.51,3.36-3.24,3.33c-13.69-0.16-27.39-0.16-41.08,0
		c-2.69,0.03-3.23-0.72-3.22-3.28c0.1-28.04,0.06-56.07,0.06-84.11c0-5.73-0.39-11.43-1.34-17.08
		c-1.89-11.22-8.81-17.48-20.15-18.25c-20.86-1.41-35.22,10.71-37.52,31.54c-0.72,6.51-1.02,13.02-1.02,19.56
		c0,22.78-0.05,45.56,0.06,68.34c0.01,2.61-0.63,3.31-3.29,3.28c-13.69-0.15-27.39-0.16-41.08,0.01c-2.77,0.03-3.18-0.84-3.17-3.33
		c0.09-26.52,0.08-53.03,0.04-79.55c-0.01-7.35-0.2-14.7-1.28-21.99c-1.57-10.58-7.81-16.65-18.51-17.76
		c-5.86-0.61-11.68-0.19-17.35,1.58c-13.6,4.24-21.03,14.11-22.56,29.75c-0.58,5.94-0.82,11.87-0.81,17.83
		c0.03,23.25-0.04,46.49,0.08,69.74c0.01,2.78-0.46,4.04-3.55,3.71c-3.11-0.34-7.25,0.95-9.13-0.63c-1.97-1.65-0.59-5.91-0.6-9.02
		c-0.04-30.14-0.03-60.28-0.03-90.41c0-22.84-11.59-40.04-32.76-48.62c-0.42-0.17-0.82-0.4-1.23-0.6
		C47.6,86.45,47.64,86.23,47.68,86.01z"/>
	<path class="st0" d="M282.29,86.01c13.3,0,26.18,0.1,39.05-0.08c2.94-0.04,3.46,0.98,3.37,3.57c-0.18,5.23-0.05,10.46-0.05,15.74
		c1.66,0.28,2.12-1.04,2.87-1.77c21.6-20.79,56.38-27.05,82.72-14.85c7.46,3.46,13.63,8.53,18.61,15.05
		c0.63,0.83,1.27,1.64,1.97,2.55c11.02-11,23.63-18.91,38.91-22c14.26-2.88,28.45-2.33,42.2,2.41
		c19.93,6.87,31.02,20.57,31.66,43.79c0.29,10.62,0.15,21.25,0.16,31.88c0.02,23.48-0.04,46.96,0.07,70.43
		c0.01,2.68-0.72,3.25-3.3,3.22c-13.69-0.13-27.39-0.13-41.08,0c-2.52,0.02-3.04-0.73-3.03-3.12c0.08-28.27,0.08-56.53,0.03-84.8
		c-0.01-5.6-0.43-11.19-1.34-16.73c-1.77-10.76-8.58-16.99-19.64-18.03c-20.24-1.9-35.36,10.2-37.87,30.28
		c-0.9,7.19-1.31,14.4-1.31,21.64c0,22.43-0.04,44.85,0.06,67.28c0.01,2.65-0.55,3.52-3.39,3.48c-13.46-0.17-26.92-0.16-40.38,0
		c-2.88,0.03-3.67-0.62-3.65-3.59c0.13-26.86,0.13-53.73,0.04-80.6c-0.02-6.64-0.31-13.29-1.15-19.9
		c-1.39-10.87-7.3-17.09-18.22-18.47c-7.42-0.94-14.69-0.06-21.63,2.95c-11.92,5.17-17.1,14.88-18.54,27.17
		c-0.81,6.85-1.04,13.73-1.04,20.61c0.01,22.78-0.04,45.55,0.06,68.33c0.01,2.71-0.63,3.75-3.45,3.46c-2.43-0.25-4.93-0.24-7.36,0
		c-2.57,0.25-3.02-0.74-3.02-3.11c0.08-30.25,0.06-60.51,0.05-90.76c0-7.48-0.24-14.95-1.61-22.31
		c-2.91-15.61-12.71-25.51-26.84-31.7c-1.07-0.47-2.15-0.89-3.22-1.35C282.87,86.63,282.74,86.44,282.29,86.01z"/>
	<path class="st0" d="M30.86,140.77c0-17.16,0.06-34.32-0.06-51.47c-0.02-2.87,0.69-3.58,3.56-3.14
		c25.6,3.92,43.79,24.9,43.79,50.66c0,31.86-0.04,63.73,0.07,95.59c0.01,2.99-0.73,3.65-3.68,3.44
		c-24.4-1.78-43.67-22.32-43.68-46.76C30.85,172.99,30.86,156.88,30.86,140.77z"/>
	<path class="st1" d="M60.68,67.85C46.03,67.8,34.47,56.14,34.59,41.53c0.12-14.65,11.85-25.81,27.02-25.73
		c13.81,0.07,25.39,11.89,25.44,25.95C87.09,56.28,75.34,67.91,60.68,67.85z"/>
	<path class="st0" d="M597.04,210.54c0,7.56-0.11,15.12,0.06,22.67c0.06,2.52-0.45,3.76-3.21,3.3c-1.03-0.17-2.11-0.1-3.15-0.01
		c-1.62,0.14-2.28-0.41-2.27-2.14c0.06-10.63,0.08-21.25-0.01-31.88c-0.02-2,0.84-2.31,2.53-2.25c2.92,0.1,5.86,0.2,8.77-0.03
		c2.12-0.16,2.85,0.83,3.41,2.57c2.21,6.85,4.51,13.68,6.79,20.57c1.55-0.49,1.38-1.91,1.72-2.89c2.04-5.95,4.01-11.93,5.9-17.93
		c0.54-1.7,1.35-2.46,3.22-2.3c3.69,0.33,8.5-1.51,10.76,0.77c1.79,1.81,0.56,6.63,0.58,10.11c0.04,7.47-0.06,14.95,0.06,22.42
		c0.03,2.16-0.36,3.06-2.82,3.02c-5.76-0.1-5.77,0.04-5.77-5.67c0-6.71,0-13.41,0-20.12c-0.2-0.04-0.39-0.08-0.59-0.12
		c-1.84,5.7-3.69,11.41-5.52,17.11c-0.36,1.11-0.64,2.24-0.99,3.35c-1.64,5.22-4.35,6.65-9.7,5.39c-1.63-0.38-1.5-1.7-1.81-2.66
		c-2.22-6.75-4.3-13.54-6.43-20.32c-0.33-1.05-0.69-2.09-1.04-3.13C597.36,210.44,597.2,210.49,597.04,210.54z"/>
	<path class="st0" d="M610.71,168.44c2.25-6.81,4.55-13.6,6.7-20.44c0.61-1.93,1.44-2.84,3.63-2.69c3.02,0.21,6.08,0.12,9.11,0.03
		c1.48-0.04,2.04,0.39,2.03,1.96c-0.06,10.73-0.05,21.47-0.01,32.2c0,1.3-0.36,1.75-1.75,1.88c-6.81,0.65-6.81,0.7-6.81-5.95
		c0-6.63,0-13.26,0-19.88c-0.18-0.05-0.35-0.1-0.53-0.15c-1.67,5.25-3.35,10.5-5.02,15.76c-0.57,1.77-1.35,3.52-1.64,5.34
		c-0.61,3.89-2.49,5.16-6.56,5.03c-3.36-0.11-4.53-1.2-5.39-4.19c-2.1-7.36-4.57-14.62-7.44-21.91c0,6.04,0,12.07,0,18.11
		c0,1.17-0.15,2.36,0.03,3.5c0.52,3.36-0.51,4.49-4.2,4.48c-3.76-0.01-4.55-1.14-4.45-4.66c0.25-9.33,0.23-18.67,0-28
		c-0.07-3.04,0.9-3.97,3.71-3.5c0.45,0.08,0.93,0.01,1.4,0.01c8.82,0,8.82,0,11.62,8.52c1.59,4.86,3.19,9.71,4.79,14.57
		C610.2,168.44,610.45,168.44,610.71,168.44z"/>
	<path class="st2" d="M567.65,154.2c0,26.26-0.03,52.52,0.05,78.78c0.01,2.51-0.47,3.78-3.24,3.34c-1.07-0.17-1.78-0.46-1.73-1.69
		c0.03-0.7-0.01-1.4-0.01-2.1c0-52.17-0.01-104.35,0.05-156.52c0-1.29-1.04-3.28,1.27-3.77c2.49-0.53,3.7,0.09,3.68,3.18
		C567.6,101.68,567.65,127.94,567.65,154.2z"/>
	<path class="st0" d="M869.09,210.25c-1.84-1.3-7.36,0.35-8.29,2.48c-7.22-4.48-15.59-3.94-20.15,1.29
		c-3.99,4.59-4.04,13.16-0.09,17.88c4.58,5.48,12.11,6,20.54,1.05c-0.34,3.02,0.78,6.1-2.19,7.69c-2.65,1.43-6.33,2.03-8.36,0.18
		c-3.05-2.78-6.51-1.8-9.72-2.65c-2.09-0.55-2.4,0.68-1.86,2.37c1.07,3.4,3.73,5.01,6.94,5.73c5.07,1.13,10.21,1.25,15.32,0.13
		c5.55-1.22,8.27-4.35,8.37-10.06c0.14-7.94,0.05-15.88,0.04-23.83C869.64,211.73,869.91,210.83,869.09,210.25z M853.76,230.62
		c-4.4,0.05-7.02-2.83-7.03-7.75c-0.01-4.75,2.77-7.88,7.02-7.89c4.29-0.01,7.25,3.09,7.35,7.68
		C861.21,227.47,858.34,230.58,853.76,230.62z"/>
	<path class="st0" d="M695.95,157.41c0-3.36,0.15-6.4-0.05-9.41c-0.15-2.25,0.68-2.7,2.77-2.69c6.19,0.02,6.19-0.08,6.19,5.94
		c0,8.29,0,16.58,0,24.87c0,5.26,0,5.16-5.11,5.27c-2.12,0.05-3.58-0.22-3.2-2.92c-8.65,4.96-15.75,4.58-20.72-0.9
		c-3.85-4.24-4.29-12.94-0.9-17.68C679.01,154.21,686.63,153.22,695.95,157.41z"/>
	<path class="st0" d="M707.3,219.3c5.94-5.79,11-11.99,20.03-8.67c-2.4,2.87-5.64,5.09-8.58,7.59c-1.47,1.25-1.66,2.02-0.45,3.61
		c3.5,4.6,6.8,9.36,10.62,14.66c-3.02,0-5.31-0.08-7.59,0.03c-1.45,0.07-2.38-0.41-3.17-1.63c-1.66-2.54-3.4-5.04-5.24-7.44
		c-0.61-0.79-0.87-2.71-2.34-1.91c-1.32,0.71-3.03,1.48-3.24,3.38c-0.11,1.04-0.18,2.12-0.01,3.15c0.61,3.64-0.8,4.79-4.48,4.52
		c-5.26-0.39-4.54,0.62-4.56-4.8c-0.04-9.46,0.06-18.92-0.06-28.38c-0.03-2.38,0.53-3.23,3.07-3.18c5.99,0.12,6-0.02,6,6.11
		C707.3,210.34,707.3,214.38,707.3,219.3z"/>
	<path class="st0" d="M668.81,236.49c-2.58,0-4.77,0-6.96,0c-0.23,0-0.6,0.09-0.68-0.02c-2.74-3.9-5.38-0.38-8,0.15
		c-3.53,0.72-6.97,0.71-10.32-0.68c-3.08-1.28-5.01-3.6-4.86-6.99c0.14-3.22,2.13-5.29,5.15-6.4c4.09-1.51,8.48-1.59,12.66-2.66
		c1.08-0.28,2.51-0.05,2.43-1.82c-0.07-1.51-0.98-2.29-2.38-2.61c-3.07-0.71-6.02-0.98-8.33,1.85c-0.65,0.8-7.07,0.66-7.9-0.06
		c-0.72-0.63-0.29-1.23,0.03-1.85c1.16-2.31,2.99-3.93,5.44-4.65c5.5-1.62,11.07-1.6,16.58-0.07c3.1,0.86,5.02,2.88,5.24,6.22
		c0.11,1.74,0.3,3.5,0.22,5.24C666.89,226.89,666.46,231.66,668.81,236.49z"/>
	<path class="st0" d="M668.36,174.34c-0.69,1.12-1.06,1.84-1.53,2.48c-3.95,5.31-14.26,7.01-21.69,3.61
		c-5.61-2.57-8.22-8.71-6.68-15.7c1.59-7.25,9.55-11.52,18.4-9.88c7.41,1.37,11.53,6.01,11.87,13c0.1,2.06-0.49,2.61-2.47,2.57
		c-5.61-0.11-11.23,0.04-16.84-0.07c-2.4-0.05-2.53,0.92-1.7,2.71c1.58,3.41,7.53,5.23,9.8,2.42c2.32-2.89,4.69-2.14,7.34-1.82
		C665.89,173.77,666.9,174.05,668.36,174.34z"/>
	<path class="st0" d="M727.19,162.18c1.06-3.75,3.57-5.87,7.04-6.76c4.82-1.25,9.74-1.22,14.59-0.08c4.47,1.04,6.21,3.25,6.32,7.93
		c0.08,3.15-0.06,6.3-0.07,9.45c-0.01,2.81,0.26,5.59,2.18,8.9c-3.79-1.1-7.32,1.59-9.99-2.18c-0.56-0.8-1.43,0.32-2.08,0.66
		c-4.14,2.17-8.47,2.56-12.91,1.3c-3.99-1.14-6.04-3.71-6.02-7.17c0.01-3.33,1.88-5.82,5.84-6.89c3.82-1.02,7.79-1.48,11.66-2.36
		c1.04-0.24,2.9,0.07,2.69-1.96c-0.17-1.6-1.27-2.57-2.79-2.7c-2.87-0.26-5.96-0.92-7.99,2.05c-0.7,1.03-1.58,0.8-2.48,0.68
		C731.23,162.78,729.28,162.48,727.19,162.18z"/>
	<path class="st0" d="M690.2,119.1c-1.68,6.6-10.5,8.68-16.67,7.85c-8.16-1.1-12.61-4.98-13.24-11.58
		c-0.86-9.02,4.28-14.87,13.83-15.73c9.5-0.85,16.15,4.37,16.91,13.16c0.18,2.03-0.44,2.62-2.45,2.58
		c-5.73-0.12-11.47,0.03-17.2-0.08c-2.24-0.04-2.27,0.85-1.58,2.51c1.53,3.63,7.65,5.61,9.97,2.63c2.26-2.9,4.45-2.15,7.03-1.77
		C687.93,118.85,689.06,118.96,690.2,119.1z"/>
	<path class="st0" d="M759.35,229.14c-2.61,6.16-7.76,7.54-13.38,7.97c-11.91,0.91-19.41-7.58-16.2-18.24c0.1-0.33,0.19-0.67,0.31-1
		c2.46-6.29,10.12-9.5,18.76-7.86c6.55,1.24,10.86,6.42,11.05,13.03c0.05,1.83-0.49,2.41-2.34,2.38c-5.61-0.11-11.23,0.11-16.83-0.1
		c-3.04-0.11-2.76,1.15-1.76,3.03c1.74,3.27,7.43,4.9,9.63,2.18c2.34-2.89,4.66-2.27,7.37-1.81
		C756.98,228.9,758,228.98,759.35,229.14z"/>
	<path class="st0" d="M765.12,115.56c0.3,3.33,2.1,5.22,4.92,5.9c2.59,0.62,5.11,0.34,6.84-2.23c0.63-0.93,8.21-0.94,8.85-0.09
		c0.4,0.53,0.1,1.08-0.21,1.6c-1.08,1.87-2.57,3.39-4.5,4.29c-6.43,3-12.92,2.95-19.17-0.4c-4.51-2.42-5.98-6.77-5.9-11.53
		c0.08-5.11,2.24-9.34,7.03-11.65c5.71-2.76,11.55-2.51,17.22,0.21c2.37,1.13,4.08,3.04,5.16,5.5c2.92,6.63,2,8.18-4.97,8.18
		c-4.79,0-9.59,0.02-14.38,0.03C765.78,115.37,765.56,115.46,765.12,115.56z"/>
	<path class="st0" d="M612.78,103.99c5.79-4.57,11.1-5.3,16.83-3.41c3.39,1.12,5.21,3.57,5.3,7.05c0.14,5.6,0.01,11.21,0.07,16.81
		c0.02,1.5-0.47,1.94-2,2.03c-6.83,0.43-6.82,0.49-6.82-6.39c0-3.04,0.09-6.08-0.04-9.11c-0.17-4.02-1.69-5.76-4.92-5.99
		c-3.71-0.26-6.82,2.02-7.13,5.7c-0.32,3.83-0.06,7.7-0.23,11.55c-0.06,1.38,0.97,3.61-0.82,3.99c-2.44,0.52-5.1,0.14-7.64-0.09
		c-0.68-0.06-0.51-1.19-0.51-1.87c-0.01-7.24,0.05-14.48-0.05-21.72c-0.03-1.94,0.75-2.47,2.48-2.32c0.93,0.08,1.87,0.05,2.81,0
		C612.19,100.13,614.15,100.08,612.78,103.99z"/>
	<path class="st0" d="M728.98,103.76c4.68-3.96,9.37-4.72,14.42-3.8c4.73,0.86,7.24,3.59,7.38,8.35c0.16,5.36,0.02,10.72,0.08,16.08
		c0.02,1.42-0.35,1.98-1.93,2.1c-6.89,0.5-6.87,0.56-6.9-6.3c-0.01-3.14-0.09-6.29-0.22-9.43c-0.16-3.87-1.8-5.7-5.04-5.77
		c-3.64-0.08-6.64,2.14-6.89,5.57c-0.29,4.06-0.36,8.16-0.16,12.23c0.14,2.81-0.57,4.15-3.59,3.68c-1.03-0.16-2.1-0.1-3.15-0.01
		c-1.63,0.14-2.28-0.45-2.26-2.16c0.07-7.34,0.06-14.69,0-22.03c-0.01-1.54,0.58-2.1,2.05-2.03c1.17,0.06,2.35,0.14,3.5-0.02
		C728.63,99.88,729.48,100.9,728.98,103.76z"/>
	<path class="st0" d="M810.34,213.69c4.55-3.75,9.09-4.63,14.04-3.76c4.91,0.87,7.5,3.45,7.73,8.42c0.25,5.35,0.04,10.72,0.11,16.08
		c0.02,1.46-0.45,1.97-1.99,2.09c-6.94,0.54-6.92,0.6-6.94-6.24c-0.01-3.15-0.01-6.29-0.12-9.44c-0.14-3.91-1.72-5.71-4.99-5.85
		c-3.74-0.17-6.75,2.2-6.97,5.83c-0.26,4.18-0.37,8.38-0.25,12.57c0.07,2.42-0.62,3.2-3.12,3.15c-5.74-0.12-5.74,0.02-5.74-5.64
		c0-6.06,0.1-12.12-0.05-18.18c-0.05-2.19,0.63-2.97,2.76-2.68c0.92,0.13,1.88,0.14,2.8,0C809.99,209.7,810.81,210.79,810.34,213.69
		z"/>
	<path class="st0" d="M774.73,200.85c0,2.03,0.06,3.04-0.01,4.05c-0.22,3.15-0.59,6.11,4.38,5.29c2.55-0.42,1.37,2.1,1.59,3.35
		c0.25,1.42-0.1,2.76-1.96,2.37c-4.15-0.87-4.2,1.61-4.02,4.55c0.14,2.33,0.08,4.67,0.02,7.01c-0.07,2.63,0.95,4.21,3.74,3.48
		c2.39-0.62,2.46,0.65,2.63,2.35c0.18,1.77,0.4,3.3-2.11,3.37c-1.4,0.04-2.78,0.45-4.18,0.49c-6.27,0.17-8.79-2.26-8.87-8.48
		c-0.04-2.92-0.07-5.84,0.01-8.76c0.07-2.49,0.4-5.05-4.47-3.65C766.19,210.78,770.13,206.2,774.73,200.85z"/>
	<path class="st3" d="M597.63,108.68c0,5.12-0.06,10.25,0.03,15.37c0.03,1.79-0.49,2.38-2.36,2.44c-7.07,0.25-7.07,0.32-7.07-6.82
		c0-8.73,0.09-17.47-0.06-26.2c-0.04-2.55,0.58-3.41,3.28-3.34c6.17,0.17,6.17,0.02,6.17,6.31
		C597.63,100.53,597.63,104.61,597.63,108.68z"/>
	<path class="st4" d="M639.02,105.52c4.19-4.85,8.11-9.37,12.69-14.67c0,2.14,0.06,3.25-0.01,4.36c-0.2,3.04-0.4,5.84,4.21,5.11
		c2.38-0.38,1.52,1.78,1.62,2.98c0.1,1.23,0.33,2.93-1.72,2.55c-4.36-0.8-4.37,1.79-4.12,4.84c0.14,1.74,0.06,3.5,0.02,5.24
		c-0.07,3.16-0.01,6.06,4.63,4.93c1.92-0.47,1.54,1.38,1.67,2.33c0.16,1.23,0.93,2.89-1.3,3.31c-3,0.56-5.98,0.93-9.01,0.09
		c-2.63-0.73-4.23-2.21-4.61-5.02c-0.54-4.07-0.16-8.15-0.26-12.22C642.74,106.11,642.79,106.11,639.02,105.52z"/>
	<path class="st0" d="M788.58,105.98c4.63-5.38,8.48-9.84,12.42-14.41c0.86,1.21,0.57,2.29,0.5,3.25c-0.25,3.39-0.35,6.29,4.64,5.54
		c2.3-0.34,1.27,1.95,1.46,3.13c0.24,1.45-0.12,2.73-1.96,2.37c-4-0.77-4.42,1.41-4.15,4.55c0.21,2.44,0.09,4.9,0.11,7.35
		c0.03,2.47,1.13,3.85,3.71,3.17c3.15-0.84,2.23,1.69,2.71,3.06c0.68,1.95-0.46,2.47-2.1,2.63c-1.28,0.13-2.54,0.45-3.82,0.5
		c-6.77,0.26-9.2-2.04-9.23-8.72c-0.02-2.92-0.17-5.85,0.05-8.76C793.12,107.03,792.71,105.26,788.58,105.98z"/>
	<path class="st5" d="M704.8,103.5c2.44-2.92,4.85-4.11,7.87-3.91c5.19,0.35,5.53,1.04,3.34,5.64c-0.75,1.56-1.39,1.52-2.9,1.15
		c-4.48-1.09-6.59,0.4-7.42,4.9c-0.74,4.04-0.53,8.13-0.45,12.19c0.04,2.12-0.31,3.07-2.8,3.03c-6.05-0.09-6.05,0.05-6.05-6.1
		c0-5.71,0.12-11.42-0.06-17.12c-0.08-2.51,0.8-3.51,3.17-3.01C701.47,100.69,704.72,98.51,704.8,103.5z"/>
	<path class="st0" d="M682.7,213.14c3.18-3.75,6.85-4.03,10.83-3.01c1.51,0.39,2.05,0.95,1.27,2.67c-1.13,2.49-1.75,4.61-5.51,3.44
		c-3.17-0.99-5.33,1.14-5.89,4.78c-0.64,4.16-0.74,8.37-0.53,12.56c0.11,2.26-0.53,3.01-2.89,2.97c-5.81-0.08-5.81,0.05-5.81-5.61
		c0-6.07,0.09-12.14-0.05-18.2c-0.05-2.2,0.69-3.11,2.78-2.63C679.04,210.59,682.42,208.21,682.7,213.14z"/>
	<path class="st3" d="M785.96,222.96c0-3.49,0.07-6.98-0.03-10.47c-0.05-1.7,0.32-2.42,2.27-2.47c6.57-0.19,6.57-0.28,6.57,6.26
		c0,5.7-0.1,11.4,0.05,17.1c0.06,2.36-0.53,3.23-3.07,3.18c-5.78-0.12-5.79,0.02-5.79-5.92
		C785.96,228.08,785.96,225.52,785.96,222.96z"/>
	<path class="st0" d="M720.76,168.49c0,3.61-0.05,7.22,0.02,10.84c0.03,1.47-0.4,1.96-1.95,2.06c-6.73,0.45-6.73,0.51-6.73-6.02
		c0-5.83,0.09-11.65-0.05-17.48c-0.05-2.09,0.45-2.79,2.68-2.78c6.02,0.04,6.02-0.08,6.02,6.04
		C720.76,163.6,720.76,166.04,720.76,168.49z"/>
	<path class="st6" d="M716.5,153.22c-2.55-0.28-4.25-1.71-4.21-4.44c0.04-2.71,1.71-4.24,4.44-4.34c2.43-0.09,4.63,2.05,4.4,4.4
		C720.88,151.43,719.46,153.1,716.5,153.22z"/>
	<path class="st7" d="M794.5,204.17c-0.01,2.56-1.93,4.54-4.44,4.36c-2.74-0.2-4.27-1.74-4.21-4.57c0.06-2.71,1.66-4.01,4.23-4.15
		C792.65,199.68,794.52,201.6,794.5,204.17z"/>
	<path class="st8" d="M696.05,168.24c0.02,4.87-2.83,8.12-7.15,8.16c-4.54,0.03-7.19-3.04-7.21-8.36c-0.01-4.91,2.79-7.98,7.26-7.95
		C693.34,160.13,696.03,163.21,696.05,168.24z"/>
	<path class="st9" d="M651.56,232.05c-2.03-0.31-4.35-0.65-4.57-3.3c-0.2-2.45,2.05-2.8,3.83-3.29c1.34-0.37,2.74-0.69,4.12-0.72
		c1.07-0.03,2.54-1.37,3.1-0.06c0.6,1.4,0.56,3.22-0.54,4.66C656.03,231.25,653.91,231.81,651.56,232.05z"/>
	<path class="st10" d="M653.42,165.92c-0.93,0-1.88,0.1-2.8-0.03c-1.06-0.15-2.61,0.75-3.07-0.71c-0.45-1.43,0.56-2.63,1.68-3.57
		c2.85-2.39,7.61-1.89,9.66,1c0.56,0.79,1.04,1.67,0.77,2.58c-0.37,1.24-1.56,0.65-2.4,0.71
		C655.99,165.99,654.7,165.92,653.42,165.92z"/>
	<path class="st11" d="M739.98,177.06c-2.2-0.16-4.44-0.64-4.78-3.15c-0.32-2.35,1.71-2.99,3.64-3.36c1.37-0.26,2.73-0.59,4.11-0.77
		c1.16-0.16,2.7-1.36,3.42,0.16c0.62,1.31,0.32,3.03-0.61,4.33C744.37,176.21,742.25,176.81,739.98,177.06z"/>
	<path class="st12" d="M675.57,111.03c-1.05,0-2.11,0.08-3.14-0.02c-0.96-0.1-2.31,0.6-2.8-0.53c-0.47-1.11,0.32-2.24,1.06-3.15
		c2.73-3.38,8.68-2.91,10.76,0.84c1.04,1.88,0.97,3.08-1.68,2.89C678.38,110.94,676.97,111.03,675.57,111.03z"/>
	<path class="st12" d="M744.49,221.08c-1.05,0-2.1,0.07-3.14-0.02c-0.97-0.09-2.32,0.57-2.81-0.6c-0.47-1.12,0.33-2.23,1.07-3.14
		c2.51-3.09,8.12-2.97,10.39,0.23c0.6,0.85,1.23,1.84,0.8,2.9c-0.46,1.15-1.62,0.54-2.47,0.61
		C747.05,221.15,745.77,221.08,744.49,221.08z"/>
	<path class="st12" d="M771.69,111.03c-1.29,0-2.58-0.1-3.86,0.02c-2.87,0.27-2.95-1.11-1.84-3.08c1.22-2.15,3.38-2.96,5.64-2.95
		c2.27,0.01,4.43,0.84,5.57,3.04c0.86,1.66,1.21,3.22-1.65,2.99C774.27,110.94,772.97,111.03,771.69,111.03z"/>
</g>
</svg>
